HIERARCHY
ROOT Hips
{
  OFFSET 42.9137 111.181 -41.0221
  CHANNELS 6 Xposition Yposition Zposition Zrotation Xrotation Yrotation
  JOINT ToSpine
  {
    OFFSET -2.69724 7.43032 -0.144315
    CHANNELS 3 Zrotation Xrotation Yrotation
    JOINT Spine
    {
      OFFSET -0.0310711 10.7595 1.96963
      CHANNELS 3 Zrotation Xrotation Yrotation
      JOINT Spine1
      {
        OFFSET 13.1342 3.43533 0.764692
        CHANNELS 3 Zrotation Xrotation Yrotation
        JOINT Neck
        {
          OFFSET 29.8703 7.82586 -0.130764
          CHANNELS 3 Zrotation Xrotation Yrotation
          JOINT Head
          {
            OFFSET 9.52751 0.295786 -0.907742
            CHANNELS 3 Zrotation Xrotation Yrotation
            End Site
            {
              OFFSET 16.4037 0.713936 2.7358
            }
          }
        }
        JOINT LeftShoulder
        {
          OFFSET 27.5574 4.95586 2.47156
          CHANNELS 3 Zrotation Xrotation Yrotation
          JOINT LeftArm
          {
            OFFSET 1.20734 -0.998971 20.1238
            CHANNELS 3 Zrotation Xrotation Yrotation
            JOINT LeftForeArm
            {
              OFFSET 26.8049 -0.0536703 -0.155908
              CHANNELS 3 Zrotation Xrotation Yrotation
              JOINT LeftHand
              {
                OFFSET 26.6817 0 0.320147
                CHANNELS 3 Zrotation Xrotation Yrotation
                End Site
                {
                  OFFSET 18.6119 0 0.382219
                }
              }
            }
          }
        }
        JOINT RightShoulder
        {
          OFFSET 27.5927 4.71444 -2.65209
          CHANNELS 3 Zrotation Xrotation Yrotation
          JOINT RightArm
          {
            OFFSET 2.83739 -1.17114 -18.7564
            CHANNELS 3 Zrotation Xrotation Yrotation
            JOINT RightForeArm
            {
              OFFSET 28.839 -0.0548439 1.22491
              CHANNELS 3 Zrotation Xrotation Yrotation
              JOINT RightHand
              {
                OFFSET 26.5114 0 -0.101894
                CHANNELS 3 Zrotation Xrotation Yrotation
                End Site
                {
                  OFFSET 18.2168 0 0
                }
              }
            }
          }
        }
      }
    }
  }
  JOINT LeftUpLeg
  {
    OFFSET -4.76168 -1.9167 -10.2353
    CHANNELS 3 Zrotation Xrotation Yrotation
    JOINT LeftLeg
    {
      OFFSET 2.55951 -42.0585 -8.02213
      CHANNELS 3 Zrotation Xrotation Yrotation
      JOINT LeftFoot
      {
        OFFSET 3.16357 -42.5282 -3.95426
        CHANNELS 3 Zrotation Xrotation Yrotation
        JOINT LeftToeBase
        {
          OFFSET 0.346054 -6.02161 12.8035
          CHANNELS 3 Zrotation Xrotation Yrotation
          End Site
          {
            OFFSET 0.134235 -1.35082 5.13018
          }
        }
      }
    }
  }
  JOINT RightUpLeg
  {
    OFFSET -4.94151 -1.41743 10.6446
    CHANNELS 3 Zrotation Xrotation Yrotation
    JOINT RightLeg
    {
      OFFSET -2.56294 -42.0364 -7.94377
      CHANNELS 3 Zrotation Xrotation Yrotation
      JOINT RightFoot
      {
        OFFSET -3.0952 -42.555 -4.02241
        CHANNELS 3 Zrotation Xrotation Yrotation
        JOINT RightToeBase
        {
          OFFSET -0.0828122 -6.13587 12.8035
          CHANNELS 3 Zrotation Xrotation Yrotation
          End Site
          {
            OFFSET -0.131328 -1.35082 5.13018
          }
        }
      }
    }
  }
}
MOTION
Frames:	10
Frame Time:	0.0333333
-290.665 90.4174 -290.707 61.5505 -38.9947 -18.5939 -70.1915 0 88.8779 99.3912 75.3432 -11.0428 -0.939692 25.5458 0.810368 -153.753 20.8936 176.965 -157.59 60.3145 -170.652 0.227322 -13.5314 -35.2514 -67.1782 49.1464 -86.0574 9.13094 17.6386 -28.7322 0.420957 0.000575436 0.35866 -1.75091 6.41032 41.8599 -68.0471 -32.402 99.0395 8.72847 -10.8582 39.3173 0.58676 0.00033109 0.0646653 -23.7609 -0.37677 94.0697 -1.77008 27.701 -7.21929 -1.22184 -6.57524 -0.520002 8.61501 -18.1634 14.15 -67.449 5.89163 85.4178 0.099312 33.1926 10.5296 -3.27943 -18.249 1.48604 1.92501 -14.9134 -3.15388 
-286.335 90.3715 -287.863 62.1377 -39.0133 -19.2859 -70.1915 0 88.8779 96.6223 75.7399 -10.2845 -0.865058 25.7767 1.21871 -153.144 20.9129 175.988 -157.388 60.3409 -170.895 0.189857 -13.6476 -35.5253 -69.1122 48.62 -84.4456 9.21251 19.1102 -28.1259 0.420957 0.000575436 0.35866 -1.76846 6.31623 42.5462 -68.857 -32.6487 96.9329 8.67134 -10.9412 38.9207 0.58676 0.00033109 0.0646653 -24.3198 -1.3256 95.2387 -2.05553 32.0509 -6.61418 0.0647771 -1.46138 -0.211761 8.69236 -18.28 13.4855 -69.1191 3.8339 87.4921 1.61987 35.9369 6.37957 -2.57959 -10.4005 1.0576 3.32905 -24.0535 5.65378 
-281.733 90.6752 -284.841 62.4194 -38.1081 -20.216 -70.1915 0 88.8779 89.3066 75.794 -5.13626 -0.560129 25.5744 1.49821 -152.299 20.8422 174.935 -157.672 60.3304 -170.656 0.166151 -13.7824 -35.2382 -71.4045 48.1338 -82.9093 8.9444 21.0127 -27.1769 0.420957 0.000575436 0.35866 -1.77401 6.13879 43.4542 -68.1753 -33.273 95.2123 7.57867 -10.0933 37.3516 0.58676 0.00033109 0.0646653 -25.2342 -2.81431 96.1126 -2.21134 36.455 -5.60973 -0.758237 -2.49796 -0.204221 5.68943 -13.1393 8.09191 -67.8806 1.86344 88.6952 2.97402 42.5437 8.45259 1.38582 -1.31601 0.081015 3.85493 -28.8406 1.77646 
-277.437 91.0104 -281.948 62.8451 -37.3303 -19.6905 -70.1915 0 88.8779 87.9986 75.3914 -4.24757 -1.09681 25.1714 1.59158 -151.216 20.6672 174.66 -158.152 60.245 -169.476 0.128355 -14.0338 -34.5783 -71.9317 48.1057 -82.6971 8.14586 21.1182 -26.4474 0.420957 0.000575436 0.35866 -1.76732 6.11128 43.4798 -68.8756 -35.2663 92.5092 7.7292 -10.6276 36.4793 0.58676 0.00033109 0.0646653 -26.6784 -3.33708 97.0705 -2.67345 39.7873 -7.44938 2.90774 -3.35869 -0.642425 5.12225 -12.3326 9.56329 -64.5194 0.703903 87.4478 3.86283 50.5418 7.25945 5.18987 8.89837 -1.61039 3.54104 -24.8771 6.53044 
-273.246 91.3306 -279.47 63.2098 -36.5073 -19.8092 -70.1915 0 88.8779 88.1293 74.7543 -5.05869 -1.52635 24.5599 1.66854 -151.79 20.5933 174.992 -158.352 60.1646 -169.394 0.118882 -14.1402 -34.1478 -71.5691 47.9928 -83.7433 8.52793 21.4232 -26.6814 0.420957 0.000575436 0.35866 -1.75103 6.18163 42.8928 -68.9929 -36.9307 90.8255 8.43396 -12.0305 35.5356 0.58676 0.00033109 0.0646653 -28.304 -5.18273 96.4675 -2.87914 42.8963 -6.58874 3.25842 -7.61752 -0.893116 1.91202 -6.30342 7.43398 -58.2217 0.333487 88.756 6.78907 62.2077 6.8983 5.09438 17.6268 -2.62952 2.14739 -22.8209 -16.8614 
-269.129 92.1294 -276.997 64.6258 -35.8874 -19.0347 -70.1915 0 88.8779 89.7376 74.0495 -7.33422 -1.23233 23.7137 2.00626 -151.882 20.5267 175.77 -158.516 60.1084 -168.576 -0.0283895 -14.6406 -34.846 -69.4093 46.6574 -85.8985 8.88433 21.0798 -27.1406 0.420957 0.000575436 0.35866 -1.75697 6.09157 43.4106 -68.1774 -36.8378 89.6245 9.2243 -13.6489 34.639 0.58676 0.00033109 0.0646653 -32.6156 -6.31316 96.8899 -2.87743 42.564 -6.84462 4.48222 -9.55169 -1.04725 1.22001 -4.82564 6.67257 -52.8152 -1.55609 87.1517 7.71775 69.5244 -4.79754 -5.11165 15.3358 0.310463 2.15542 -16.8131 -6.168 
-265.286 93.3997 -274.504 65.0414 -35.7693 -18.4055 -70.1915 0 88.8779 89.4367 73.5502 -6.7101 -0.503738 23.1237 1.75123 -152.134 20.2791 175.916 -158.066 59.7981 -169.424 -0.0361311 -14.7144 -34.6082 -66.456 45.9184 -89.0308 9.00293 18.5322 -28.1766 0.420957 0.000575436 0.35866 -1.7384 5.95319 43.7857 -66.6954 -36.9678 89.1485 7.78896 -11.9184 33.6729 0.58676 0.00033109 0.0646653 -37.4783 -6.58228 96.7337 -2.77285 39.8836 -8.02372 4.80113 -9.80972 -1.07134 0.981632 -4.66807 7.6551 -47.1829 -0.565748 87.8569 8.09397 72.098 -8.88114 -5.91382 10.9269 0.631848 2.28203 -16.287 -14.9295 
-261.289 93.8038 -272.022 65.6554 -35.2071 -17.2088 -70.1915 0 88.8779 90.2307 72.5844 -6.57911 0.0370202 22.0401 1.45606 -152.124 19.9007 176.352 -157.545 59.3674 -169.719 0.0467424 -14.459 -34.0736 -66.0568 45.7882 -90.485 10.0942 17.922 -29.8648 0.420957 0.000575436 0.35866 -1.73108 5.99129 43.4815 -66.364 -37.7453 88.1424 7.59219 -11.8442 33.1606 0.58676 0.00033109 0.0646653 -41.1782 -7.42846 95.0218 -2.70339 39.3478 -7.52024 5.21033 -11.6143 -1.15066 0.702883 -4.32254 8.20918 -42.108 -0.265896 87.3633 5.32355 71.6859 -14.1729 -9.5966 6.90647 1.42926 2.22829 -18.0827 1.75212 
-257.181 94.7022 -269.432 65.8658 -33.9684 -16.0185 -70.1915 0 88.8779 88.09 71.5052 -3.46489 0.912522 20.9281 1.33957 -151.126 19.8061 175.954 -155.808 59.1895 -170.44 -0.0487305 -14.9078 -33.8456 -67.318 45.0673 -90.2348 10.3224 16.7288 -31.9281 0.420957 0.000575436 0.35866 -1.69745 5.84901 43.6368 -67.4274 -38.3091 86.1288 10.2333 -16.2478 32.8961 0.58676 0.00033109 0.0646653 -45.7882 -8.06589 93.4262 -2.35496 36.167 -7.60554 6.07976 -11.498 -1.17073 1.24707 -5.36343 8.43124 -37.9115 0.48797 86.635 4.99686 67.6443 -9.34663 -8.05661 0.929489 1.18424 2.25608 -9.45075 -13.9219 
-253.22 95.1462 -266.815 65.8564 -33.3272 -15.7904 -70.1915 0 88.8779 85.8727 70.8554 -1.04313 1.60716 20.2175 1.26862 -150.674 19.4619 175.492 -155.033 58.8339 -170.608 -0.041432 -14.9685 -33.3682 -67.9536 44.2341 -90.6711 10.646 15.7506 -34.3076 0.420957 0.000575436 0.35866 -1.70009 5.75857 44.1377 -68.8584 -38.1331 83.5241 9.04489 -14.1492 33.1553 0.58676 0.00033109 0.0646653 -50.1251 -7.34042 96.2286 -1.83768 33.2525 -10.5173 7.59603 -11.8609 -1.21747 1.77316 -6.32181 8.50548 -34.585 0.696008 86.441 3.41492 60.503 -6.2209 -7.72999 -1.57859 1.16545 2.26963 -18.5147 -11.4252 
